With: Ed Stoppard, Leelee Sobieski and Jeffrey Tambor

In een surrealistische, dystopische samenleving heeft het bedrijfsleven een wereldwijde samenzwering ontketent om in de geest van de mensen te komen en de bevolking afhankelijk en passief te houden. Eén man, Misha (Ed Stoppard), probeert de waarheid te ontdekken achter de samenzwering, wat leidt tot een episch gevecht met de verborgen krachten die werkelijk de wereld controleren.

Set in a dystopian future where corporate brands have created a disillusioned population, one man's effort to unlock the truth behind the conspiracy will lead to an epic battle with hidden forces that control the world. 
 
http://www.imdb.com/title/tt1368440	

------------------------ Dutch Friends ------------------------
---------------------------------------------------------------
- Bezoek ook eens mijn vrienden op:  http://www.Film-Test.nl --
----- voor mijn Nederlandse Sync. ondertitels ---- en meer ----
------- http://www.Film-Test.nl ---- Over Films en meer -------
---------------------------------------------------------------

General:

Complete name                    : BrandedBranded.avi
Format                           : AVI
Format/Info                      : Audio Video Interleave
File size                        : 1.34 GiB
Duration                         : 1h 46mn
Overall bit rate                 : 1 806 Kbps

Video:

Format                           : MPEG-4 Visual
Format profile                   : Simple@L3
Format settings, BVOP            : No
Format settings, QPel            : No
Format settings, GMC             : No warppoints
Format settings, Matrix          : Default (H.263)
Codec ID                         : XVID
Codec ID/Hint                    : XviD
Duration                         : 1h 46mn
Bit rate                         : 1 347 Kbps
Width                            : 720 pixels
Height                           : 304 pixels
Display aspect ratio             : 2.35:1
Frame rate                       : 25.000 fps
Color space                      : YUV
Chroma subsampling               : 4:2:0
Bit depth                        : 8 bits
Scan type                        : Progressive
Compression mode                 : Lossy
Bits/(Pixel*Frame)               : 0.246
Stream size                      : 1.00 GiB (75%)
Writing library                  : XviD 1.1.2 (UTC 2006-11-01)

Audio:

Format                           : AC-3
Format/Info                      : Audio Coding 3
Mode extension                   : CM (complete main)
Codec ID                         : 2000
Duration                         : 1h 46mn
Bit rate mode                    : Constant
Bit rate                         : 448 Kbps
Channel(s)                       : 6 channels
Channel positions                : Front: L C R, Side: L R, LFE
Sampling rate                    : 48.0 KHz
Bit depth                        : 16 bits
Compression mode                 : Lossy
Stream size                      : 341 MiB (25%)
Alignment                        : Aligned on interleaves
Interleave, duration             : 32 ms (0.80 video frame)